# xmcd
# 
# Track frame offsets:
#     150
#     14688
#     38264
#     51584
#     65462
#     82827
#     102307
#     115568
#     134636
#     148014
#     170097
#     179302
#     205176
# 
# Disc length: 2916
# 
# Revision: 1
# Processed by: cddbd v1.5.2PL0 Copyright (c) Steve Scherf et al.
# Submitted via: fre:ac v1.0.27
# 
DISCID=b50b620d
DTITLE=Jeff Zentner - Hymns to the Darkness
DYEAR=2006
DGENRE=????
TTITLE0=Rusty Town
TTITLE1=The Wind Can Have You
TTITLE2=Hymns to the Darkness
TTITLE3=Dwell Inside My Skin
TTITLE4=Fire and Memory
TTITLE5=Friday Evenings
TTITLE6=The Color of the Clouds At Night
TTITLE7=The Vain Hopes of Men
TTITLE8=Geography
TTITLE9=Things We Fed to the Fire
TTITLE10=Secret Blood
TTITLE11=The Wall of My Heart
TTITLE12=Promise Me That You Will Never Die
EXTD=YEAR: 2006
EXTT0=
EXTT1=
EXTT2=
EXTT3=
EXTT4=
EXTT5=
EXTT6=
EXTT7=
EXTT8=
EXTT9=
EXTT10=
EXTT11=
EXTT12=
PLAYORDER=
